<?xml version="1.0" encoding="UTF-8"?>
<svg version="1.1" xmlns="http://www.w3.org/2000/svg" width="1600" height="300">
<path d="M0 0 C0.86478287 -0.00465992 1.72956574 -0.00931984 2.62055415 -0.01412097 C5.50838813 -0.02603915 8.39574887 -0.01668777 11.2835865 -0.00736332 C13.37891587 -0.01153762 15.47424298 -0.01701566 17.56956589 -0.02368313 C23.32003958 -0.03814376 29.07037001 -0.03389101 34.82085156 -0.02651632 C41.02547443 -0.02178851 47.23006613 -0.03429109 53.43467903 -0.04453373 C64.88491333 -0.06074061 76.33508417 -0.0631655 87.78532454 -0.05822874 C98.36478974 -0.05366973 108.94423797 -0.05427303 119.52370262 -0.06006908 C120.94338762 -0.06082595 122.36307262 -0.06158193 123.78275762 -0.06233703 C125.92215692 -0.06348224 128.06155622 -0.06463212 130.20095552 -0.06579627 C150.08858693 -0.07649975 169.97621269 -0.0812281 189.86384583 -0.07332611 C190.98812802 -0.07288035 190.98812802 -0.07288035 192.13512299 -0.07242559 C198.22157285 -0.06997671 204.30802264 -0.06736509 210.39447243 -0.06474145 C234.13407744 -0.05463959 257.87361172 -0.06299389 281.61320686 -0.086236 C308.29281105 -0.11231433 334.97237265 -0.12515499 361.65199006 -0.11804825 C364.49732978 -0.1173322 367.34266952 -0.11665781 370.18800926 -0.1160078 C370.88858955 -0.115838 371.58916984 -0.11566819 372.31097983 -0.11549323 C382.88140258 -0.11319131 393.45178576 -0.12116215 404.02219963 -0.13429928 C416.04518006 -0.14921516 428.06804267 -0.14967333 440.09102927 -0.13222837 C446.22502369 -0.12370558 452.35884118 -0.12160028 458.49282646 -0.13687992 C464.10980934 -0.15069849 469.72646324 -0.14599993 475.34342696 -0.12664068 C477.37362189 -0.12287172 479.40384299 -0.12582839 481.43401466 -0.13625234 C500.91683577 -0.22916083 500.91683577 -0.22916083 509.98967171 4.38031673 C511.02221077 4.89851986 512.05474983 5.41672298 513.11857796 5.95062923 C526.86335086 14.73139908 536.79938797 26.42846345 540.98967171 42.38031673 C541.37348892 45.37929319 541.40466132 48.32680977 541.38408089 51.34754086 C541.39017199 52.20360432 541.39626309 53.05966778 541.40253878 53.94167256 C541.41907335 56.78561665 541.41440666 59.62910829 541.40959358 62.47309017 C541.41693954 64.52226885 541.4255273 66.5714434 541.43525887 68.62061214 C541.45743019 74.17039866 541.46040766 79.7200365 541.45851135 85.26986122 C541.45839143 89.91169394 541.46696472 94.55349542 541.47528887 99.19531941 C541.49450791 110.15251431 541.49741251 121.10963304 541.49064827 132.06684017 C541.48401138 143.34868796 541.50686136 154.63020849 541.543962 165.91198993 C541.57471181 175.61677195 541.58601321 185.321449 541.58212519 195.02627873 C541.58006284 200.81420934 541.58545732 206.60188532 541.61001778 212.38976955 C541.63236901 217.83677339 541.63033735 223.28324737 541.61009026 228.73025417 C541.60669482 230.72115145 541.61170553 232.71208499 541.62607384 234.70293331 C541.72992443 250.16827994 539.60076738 261.72054018 529.98967171 274.38031673 C529.24717171 275.39094173 528.50467171 276.40156673 527.73967171 277.44281673 C519.60558619 286.70592359 508.25890526 293.47022502 495.98967171 295.38031673 C493.1978495 295.48213712 490.4303842 295.53503466 487.63855171 295.53853512 C486.79976123 295.5434731 485.96097074 295.54841107 485.09676236 295.55349869 C482.28543267 295.56885533 479.47412583 295.57723099 476.66276741 295.585639 C474.6446583 295.59522256 472.62655117 295.60523292 470.60844612 295.61563778 C465.11177151 295.64273002 459.61508838 295.66373919 454.11838365 295.68363976 C448.31880656 295.70561447 442.51925477 295.73297813 436.71969795 295.75969601 C426.93168984 295.80402865 417.14367221 295.84475639 407.3556385 295.88300228 C393.73706541 295.93622607 380.11852827 295.9961724 366.49998915 296.05739796 C356.91582756 296.10019874 347.33165818 296.14121525 337.74748778 296.18198943 C335.46686077 296.19170925 333.18623399 296.20148463 330.90560746 296.21131921 C265.90869913 296.49127546 200.91297994 296.3572272 135.91603279 296.14460182 C133.1624217 296.13564058 130.40881045 296.12673051 127.65519905 296.11786556 C126.62941093 296.11456004 126.62941093 296.11456004 125.58289981 296.11118773 C114.38958917 296.07543727 103.19627901 296.05075547 92.00293171 296.02996971 C80.40054791 296.00819492 68.7982396 295.97495484 57.19591618 295.93161517 C50.72411049 295.90777978 44.25238327 295.88898455 37.78053474 295.88270283 C31.73227073 295.87665996 25.68421233 295.85668925 19.63602448 295.82604122 C17.42454327 295.81726691 15.21303522 295.81353715 13.00153732 295.81530857 C9.97716356 295.81696647 6.95341288 295.80022112 3.92912483 295.77904415 C3.06242259 295.78389173 2.19572035 295.7887393 1.3027544 295.79373378 C-12.21668504 295.6381276 -25.33700086 289.72781708 -35.05720329 280.42719173 C-45.47885277 269.50530308 -51.16104793 256.93325638 -51.15749931 241.83632565 C-51.161176 240.98958143 -51.16485269 240.14283721 -51.16864079 239.27043408 C-51.17963161 236.44027481 -51.18351361 233.61015231 -51.18733025 230.77997494 C-51.19359832 228.74770143 -51.20024542 226.71542905 -51.20724297 224.68315792 C-51.22824293 218.01581267 -51.2386408 211.34846728 -51.24860954 204.68109798 C-51.25265846 202.38257174 -51.25677543 200.08404561 -51.26095963 197.7855196 C-51.28000149 186.98666458 -51.29423526 176.18781636 -51.30257159 165.38894778 C-51.31234391 152.93677612 -51.33866766 140.48478222 -51.37907249 128.03267318 C-51.40925775 118.39848822 -51.42404272 108.76435416 -51.42735261 99.13012284 C-51.42970008 93.38023748 -51.43862163 87.63054225 -51.46381378 81.88070774 C-51.48714192 76.46912642 -51.49130856 71.05785981 -51.4810524 65.64624119 C-51.48055811 63.66578784 -51.48684696 61.68531874 -51.50060844 59.70491314 C-51.62650863 40.5046932 -51.62650863 40.5046932 -47.01032829 31.38031673 C-46.23302361 29.83150814 -46.23302361 29.83150814 -45.44001579 28.25141048 C-35.13035689 12.11342683 -19.76790798 -0.16897472 0 0 Z " fill="#7F53B3" transform="translate(76.01032829284668,1.6196832656860352)"/>
<path d="M0 0 C3.29571519 1.47212008 5.54288886 3.38264249 8 6 C8.51304687 6.53753906 9.02609375 7.07507812 9.5546875 7.62890625 C13.65165807 12.24667816 14.47059327 16.15653823 14.41015625 22.1484375 C13.78853198 26.47020621 11.80695937 29.77432769 9.7265625 33.5703125 C6.72206257 39.53852729 4.75109716 45.88919382 2.62548828 52.21191406 C2.10652761 53.69546908 1.51871874 55.15472877 0.9140625 56.60546875 C-0.18887701 59.49479319 -0.773977 62.34160157 -1.375 65.375 C-2.65954977 71.62169383 -4.25420582 77.72128588 -6.03515625 83.84375 C-7.26430379 88.60801788 -7.80765599 93.47775596 -8.47094727 98.34619141 C-9.11552652 102.79786334 -9.95164175 107.19742089 -10.80175781 111.61352539 C-13.70931133 126.81565332 -15.40573525 141.94169565 -16.69042969 157.34985352 C-16.86426952 159.39960061 -17.04537033 161.44886734 -17.25224304 163.49554443 C-17.89135165 169.95359665 -18.14645547 176.33311017 -18.17578125 182.8203125 C-18.1989591 184.83985441 -18.22307557 186.85938572 -18.24804688 188.87890625 C-18.28319736 192.01000345 -18.312567 195.14070155 -18.32592773 198.27197266 C-18.34147004 201.33021925 -18.38168146 204.38736125 -18.42578125 207.4453125 C-18.42387283 208.37054718 -18.42196442 209.29578186 -18.41999817 210.24905396 C-18.56329901 217.93741771 -20.7542622 223.6313933 -25 230 C-30.7177671 233.08759424 -35.82901021 234.11523791 -42.19140625 232.4140625 C-64.53774568 223.94188512 -80.80746606 189.72086607 -90.23852539 169.14160156 C-106 133.82189838 -106 133.82189838 -106 123 C-106.66 123 -107.32 123 -108 123 C-108.10570312 123.72445312 -108.21140625 124.44890625 -108.3203125 125.1953125 C-109.0596083 128.24596987 -110.18434076 130.24228187 -111.875 132.875 C-113.67086545 135.76121233 -115.34474978 138.53666195 -116.625 141.6875 C-117.64669619 144.14885901 -118.6608116 146.22942116 -120 148.5 C-121.37064621 150.82594508 -122.42471973 152.99101269 -123.5 155.5 C-124.82950864 158.60218682 -126.32559797 161.3555602 -128.03125 164.25 C-129.17604753 166.24882994 -129.17604753 166.24882994 -130.5 169.5 C-131.81359831 172.56506271 -133.34074383 175.32298391 -135.03515625 178.1875 C-136.03687576 180.06927268 -136.74147598 181.92414238 -137.4375 183.9375 C-138.75449045 187.67138502 -140.60466088 190.77013681 -142.81640625 194.04296875 C-144.07640447 195.99515985 -144.07640447 195.99515985 -144.87890625 198.30078125 C-146.32770442 201.78900264 -148.31608583 204.85107245 -150.375 208 C-150.76171875 208.60328125 -151.1484375 209.2065625 -151.546875 209.828125 C-155.18468769 215.44354056 -159.20484448 220.31901485 -164 225 C-164.71349609 225.78117187 -164.71349609 225.78117187 -165.44140625 226.578125 C-168.6799437 230.06187808 -171.16305318 232.1115812 -176 233 C-181.12941531 232.64624722 -185.19050248 232.04992027 -188.67578125 228.1015625 C-203.01953073 206.39765517 -207.78320042 176.89223566 -212.9765625 151.84375 C-213.77204029 148.0089883 -214.68126262 144.22334359 -215.6875 140.4375 C-216.71752949 136.47420984 -217.37368316 132.57195401 -217.8984375 128.51171875 C-218.89056366 121.37186207 -220.34958363 114.40244851 -221.9375 107.375 C-223.93002718 98.33554039 -225.68923278 89.34299999 -226.95458984 80.17431641 C-227.79291657 74.15495716 -228.88397316 68.21151615 -230.0625 62.25 C-236.90390212 27.21918934 -236.90390212 27.21918934 -231.34375 17.6875 C-228.30356662 13.86959529 -224.58827714 11.52942571 -220 10 C-212.45087463 9.37004563 -205.17876276 9.06916469 -199 14 C-195.36923818 17.72866325 -194.91898906 22.08199689 -194.02734375 27.015625 C-193.85876358 27.90425232 -193.69018341 28.79287964 -193.51649475 29.70843506 C-193.16108254 31.59373045 -192.81090361 33.48001885 -192.46557617 35.3671875 C-191.946607 38.20028412 -191.41136992 41.02989959 -190.87304688 43.859375 C-189.32696031 52.08248446 -187.87745303 60.28463963 -186.91015625 68.59765625 C-186.13818116 75.23132972 -184.95199597 81.6726521 -183.5 88.1875 C-180.84040233 100.481452 -180.84040233 100.481452 -180 106.6875 C-179.06784608 113.36494875 -177.42521918 119.85295258 -175.82080078 126.39404297 C-174.51099784 131.75498365 -173.33718827 137.08281854 -172.5546875 142.55078125 C-171.73244753 146.18137607 -170.35181543 149.5327761 -169 153 C-168.5153125 152.01902344 -168.030625 151.03804687 -167.53125 150.02734375 C-161.88969816 138.6518721 -155.99552225 127.43782429 -149.875 116.3125 C-147.8980343 112.70308005 -146.01390824 109.06284349 -144.1875 105.375 C-139.3264135 95.5635157 -134.16353108 85.89973015 -128.875 76.3125 C-126.61249894 72.20114073 -124.50991773 68.02183787 -122.4375 63.8125 C-119.88310709 58.66995567 -117.24062137 53.73984122 -114 49 C-113.13375 47.63875 -113.13375 47.63875 -112.25 46.25 C-108.46202776 42.46202776 -103.99829165 40.16036244 -98.58984375 39.87109375 C-92.25421591 40.38936715 -88.21414182 42.3243115 -84.08203125 47.19140625 C-79.76011675 53.05530703 -78.77441585 59.86853711 -77.375 66.875 C-77.07906146 68.27387825 -76.7810317 69.67231566 -76.48095703 71.0703125 C-75.63276504 75.04266386 -74.81497336 79.02070351 -74 83 C-73.30393179 86.33606107 -72.59833061 89.66974373 -71.875 93 C-71.72401855 93.69552979 -71.57303711 94.39105957 -71.41748047 95.10766602 C-70.08109849 101.04706208 -68.22987875 106.72137498 -66.2265625 112.4609375 C-65.02358672 115.93194405 -63.93421324 119.42026518 -62.875 122.9375 C-61.78626632 126.54005779 -60.63200339 130.06228579 -59.25 133.5625 C-58 137 -58 137 -58 141 C-57.34 141 -56.68 141 -56 141 C-56.03262939 140.13689209 -56.03262939 140.13689209 -56.06591797 139.25634766 C-56.21404641 132.127843 -55.29977891 125.39369669 -54.125 118.375 C-53.74932482 116.05500681 -53.3756183 113.73469396 -53.00390625 111.4140625 C-52.82617676 110.30450195 -52.64844727 109.19494141 -52.46533203 108.05175781 C-51.89180345 104.29042139 -51.46588454 100.53319867 -51.0625 96.75 C-49.97753186 87.54243257 -47.74151778 78.60148936 -45.59008789 69.59472656 C-45.00856753 67.03767303 -44.51051446 64.47567953 -44.02734375 61.8984375 C-43.08895585 57.11237683 -41.67361033 52.5972764 -40.0625 48 C-39.51949479 46.41973014 -38.9778142 44.83900447 -38.4375 43.2578125 C-38.18355469 42.51563477 -37.92960938 41.77345703 -37.66796875 41.00878906 C-36.88404808 38.65129664 -36.21267318 36.27251362 -35.5625 33.875 C-31.96710486 21.69295529 -26.74927517 8.46477443 -16 1 C-11.2869932 -1.3565034 -5.09818647 -0.58760656 0 0 Z " fill="#FEFDFE" transform="translate(289,35)"/>
<path d="M0 0 C0.78164017 0.00045319 1.56328033 0.00090637 2.36860657 0.00137329 C3.59829666 -0.00366463 3.59829666 -0.00366463 4.85282898 -0.00880432 C7.58539826 -0.01836138 10.31790634 -0.02026119 13.05049133 -0.02133179 C14.95650253 -0.02454608 16.86251349 -0.02791029 18.76852417 -0.03141785 C22.78284779 -0.03742441 26.79714986 -0.03925668 30.81147766 -0.03866577 C35.90693402 -0.0385652 41.00224771 -0.05210046 46.09767056 -0.06943798 C50.04702358 -0.0806816 53.99634377 -0.08258107 57.94571114 -0.08205605 C59.82040451 -0.08322215 61.69509912 -0.08756511 63.56977654 -0.09538841 C97.12414695 -0.22206829 129.00228656 5.19251363 153.87080383 29.39663696 C173.62860051 49.64334564 181.82100892 75.94787161 181.73554993 103.84365845 C181.36368478 127.66800412 174.63973182 149.4385583 159.55439758 168.14663696 C158.87763977 168.98839478 158.20088196 169.83015259 157.50361633 170.69741821 C140.48222824 190.70610659 115.32370534 201.30351545 89.55439758 204.14663696 C82.09542903 204.63192151 74.61861999 204.52290991 67.14814758 204.47476196 C65.04491817 204.47169648 62.94168672 204.46982637 60.8384552 204.46908569 C56.47171533 204.46452331 52.10516408 204.45024217 47.73847961 204.42788696 C42.13066232 204.39932545 36.5229909 204.388643 30.91510773 204.38420486 C26.59159381 204.38006354 22.26810948 204.37026147 17.9446106 204.35832977 C15.87445308 204.35262475 13.80429274 204.34786681 11.73413086 204.34406281 C8.86231882 204.33723183 5.99062529 204.32362217 3.11885071 204.30776978 C2.26083359 204.30665192 1.40281647 204.30553406 0.51879883 204.30438232 C-5.33089322 204.26134616 -5.33089322 204.26134616 -6.44560242 203.14663696 C-6.5456125 200.54391605 -6.58000849 197.96766475 -6.57258606 195.3644104 C-6.57414605 194.53938396 -6.57570604 193.71435753 -6.5773133 192.86433029 C-6.5813268 190.07820643 -6.57813232 187.29213631 -6.57499695 184.50601196 C-6.57635083 182.51736418 -6.57813069 180.52871664 -6.58030701 178.54006958 C-6.58488285 173.12287283 -6.58309116 167.70569503 -6.57992792 162.28849792 C-6.57740509 156.63281196 -6.57974164 150.97712767 -6.58131409 145.32144165 C-6.58313601 135.82176419 -6.58072888 126.32209449 -6.57597351 116.82241821 C-6.57053085 105.82236992 -6.57229349 94.82234017 -6.57779992 83.82229233 C-6.5823304 74.39643062 -6.58298191 64.97057451 -6.58036125 55.54471207 C-6.57879811 49.90693101 -6.57860569 44.26915868 -6.58189774 38.63137817 C-6.58477551 33.33242419 -6.58280248 28.03349422 -6.57700348 22.73454285 C-6.57567538 20.78376811 -6.57607084 18.83299136 -6.57826614 16.88221741 C-6.58097569 14.23107168 -6.57759893 11.58000419 -6.57258606 8.92886353 C-6.57481678 8.14648693 -6.5770475 7.36411034 -6.57934582 6.55802536 C-6.55603955 0.25703352 -6.29859134 0.03797519 0 0 Z M51.55439758 50.14663696 C51.55439758 84.46663696 51.55439758 118.78663696 51.55439758 154.14663696 C84.40397736 154.68729168 84.40397736 154.68729168 111.29267883 138.83804321 C121.39195725 126.82007632 124.45615897 111.18787768 123.16011047 95.8475647 C121.66016451 81.53855641 116.54722579 69.7978171 105.36689758 60.39663696 C89.25812013 48.60905957 71.14827451 50.14663696 51.55439758 50.14663696 Z " fill="#000000" transform="translate(962.4456024169922,60.853363037109375)"/>
<path d="M0 0 C3.45722654 2.88276291 6.76489342 5.87027148 10 9 C10.75023437 9.72445312 11.50046875 10.44890625 12.2734375 11.1953125 C31.78000983 31.38632596 38.68920143 58.62043482 38.47241211 85.98193359 C37.71984754 114.87467155 26.49931907 140.72901337 5.52734375 160.81640625 C-14.91839549 178.48127214 -38.81711845 187.44195651 -65.8125 187.3125 C-67.66452026 187.30404053 -67.66452026 187.30404053 -69.55395508 187.29541016 C-97.46584565 186.92376676 -123.19290537 175.77166155 -143 156 C-164.1503273 132.85435881 -171.99445562 105.39153272 -171.13183594 74.70996094 C-169.83566582 48.06646414 -157.975968 23.62182863 -139 5 C-101.12941899 -28.84517659 -39.8940187 -32.30089731 0 0 Z M-101.11328125 45.53515625 C-109.6481572 56.6852737 -112.35808811 68.62562507 -112.3125 82.375 C-112.32861328 83.33921875 -112.34472656 84.3034375 -112.36132812 85.296875 C-112.37030102 98.68443356 -108.080154 111.93610184 -98.875 121.875 C-88.43780338 131.55664198 -76.33564709 134.47754279 -62.5 134.25390625 C-50.06010236 133.35145832 -39.37066418 128.22726716 -31 119 C-20.81567894 104.69861298 -18.28842174 88.60559668 -20.4609375 71.3359375 C-22.86484834 58.58106938 -28.28182495 46.09203475 -39.23046875 38.44140625 C-59.32864063 26.78377471 -84.66950752 28.15745622 -101.11328125 45.53515625 Z " fill="#000000" transform="translate(1490,80)"/>
<path d="M0 0 C20.13 0 40.26 0 61 0 C68.25646026 21.34253018 75.11132896 42.79116196 81.8125 64.3125 C82.02745747 65.0027552 82.24241493 65.69301041 82.46388626 66.40418243 C83.11536168 68.49616988 83.76679342 70.58817092 84.41821289 72.68017578 C85.06651422 74.76215551 85.71482804 76.84413133 86.36318398 78.92609406 C86.79247686 80.30461845 87.22173592 81.68315338 87.65096092 83.06169891 C91.78788981 96.34613031 95.97080911 109.61565657 100.1875 122.875 C100.63169785 124.27511826 100.63169785 124.27511826 101.08486938 125.70352173 C101.902389 128.27950261 102.72219537 130.85474178 103.54296875 133.4296875 C103.78050873 134.178517 104.01804871 134.9273465 104.26278687 135.6988678 C105.44269093 139.42368926 105.44269093 139.42368926 107 143 C109.39349665 135.34619938 111.78643237 127.69222347 114.17904663 120.03814697 C115.05885364 117.22362309 115.93876481 114.4091318 116.8187561 111.59466553 C122.15663503 94.52204956 127.48611248 77.44685424 132.79957199 60.36662102 C133.6313954 57.69289209 134.46343845 55.01923161 135.29556274 52.34559631 C135.56773432 51.47108668 135.83990589 50.59657705 136.12032509 49.69556713 C136.66618482 47.94167971 137.21205143 46.18779443 137.75792503 44.43391132 C139.37502621 39.23762284 140.99053754 34.04084311 142.60499859 28.84373379 C143.61563947 25.59160184 144.62767798 22.33990605 145.64008522 19.08832359 C146.11352157 17.56668696 146.58634857 16.04486059 147.05853844 14.52283669 C147.70437146 12.44132877 148.35229096 10.36048168 149.00073242 8.27978516 C149.36454514 7.10936676 149.72835785 5.93894836 150.10319519 4.73306274 C151 2 151 2 152 0 C172.13 0 192.26 0 213 0 C210.75006165 10.12472259 210.75006165 10.12472259 209.08666992 14.92871094 C208.71331512 16.01488205 208.33996033 17.10105316 207.95529175 18.22013855 C207.55110016 19.37983658 207.14690857 20.53953461 206.73046875 21.734375 C206.30226837 22.97580765 205.87406799 24.2172403 205.43289185 25.49629211 C204.26681654 28.876866 203.09479583 32.25535088 201.92172623 35.63350296 C200.67941884 39.21460618 199.44283575 42.79768469 198.20581055 46.38061523 C196.4103944 51.57938735 194.61330634 56.7775756 192.81399632 61.97500134 C189.71239199 70.93434573 186.6218952 79.89746169 183.5390625 88.86328125 C183.32082888 89.49791857 183.10259525 90.13255589 182.87774849 90.78642464 C181.78754746 93.95682822 180.69742428 97.12725857 179.60733032 100.29769897 C172.66608123 120.47981957 165.70923054 140.65659033 158.7449646 160.83078003 C157.92785385 163.19798761 157.11097209 165.56527425 156.29434204 167.93264771 C149.16559655 188.59626922 149.16559655 188.59626922 146.03125 197.47265625 C145.65548828 198.5387915 145.27972656 199.60492676 144.89257812 200.70336914 C144 203 144 203 143 204 C140.73008113 204.09439978 138.45718033 204.11742226 136.18530273 204.11352539 C135.11706772 204.11374443 135.11706772 204.11374443 134.0272522 204.1139679 C131.66266888 204.1132687 129.29816339 204.10547606 126.93359375 204.09765625 C125.29834537 204.09579209 123.66309643 204.09436818 122.02784729 204.09336853 C117.71565215 204.08954318 113.40349048 204.07971275 109.09130859 204.06866455 C104.69434054 204.0584508 100.29736711 204.05387099 95.90039062 204.04882812 C87.26691169 204.03809049 78.63346 204.02101387 70 204 C67.12898355 197.01334112 64.5330395 189.9654972 62.0859375 182.8203125 C61.71904312 181.75572311 61.35214874 180.69113373 60.97413635 179.59428406 C59.77220464 176.10528242 58.57364417 172.61513228 57.375 169.125 C56.52575474 166.6583499 55.67622202 164.19179876 54.82641602 161.7253418 C53.51447257 157.91738426 52.20261985 154.10939657 50.891922 150.30101013 C46.58921476 137.79949334 42.26512077 125.30541137 37.9375 112.8125 C36.45560858 108.53389592 34.97386158 104.25524185 33.4921875 99.9765625 C33.12544418 98.91758255 32.75870087 97.8586026 32.38084412 96.76753235 C30.06790681 90.08774056 27.75798396 83.40691352 25.45014954 76.72535706 C23.87439675 72.16341552 22.29787412 67.60174027 20.72116089 63.04013062 C19.95423596 60.82100332 19.18756955 58.60178667 18.4211731 56.38247681 C14.80099266 45.90151732 11.17312596 35.42456884 7.42578125 24.98828125 C7.15876907 24.24341965 6.8917569 23.49855804 6.61665344 22.73112488 C5.41856991 19.39237134 4.21351432 16.05646822 2.99438477 12.7253418 C2.59147217 11.6094165 2.18855957 10.49349121 1.7734375 9.34375 C1.42716309 8.39693359 1.08088867 7.45011719 0.72412109 6.47460938 C0 4 0 4 0 0 Z " fill="#000000" transform="translate(638,61)"/>
<path d="M0 0 C43.23 0 86.46 0 131 0 C131 15.18 131 30.36 131 46 C106.91 46 82.82 46 58 46 C58 56.89 58 67.78 58 79 C79.12 79 100.24 79 122 79 C122 93.19 122 107.38 122 122 C100.88 122 79.76 122 58 122 C58 134.21 58 146.42 58 159 C82.09 159 106.18 159 131 159 C131 173.85 131 188.7 131 204 C87.77 204 44.54 204 0 204 C0 136.68 0 69.36 0 0 Z " fill="#000000" transform="translate(1168,61)"/>
<path d="M0 0 C1.25683594 0.74636719 1.25683594 0.74636719 2.5390625 1.5078125 C11.33211043 6.83947014 16.09884969 14.09360857 21 23 C21.48597656 23.85207031 21.97195313 24.70414063 22.47265625 25.58203125 C35.1089447 50.12038955 32.47425978 83.68069613 24.58935547 109.28100586 C21.92831609 117.48815843 18.93698539 124.87204476 14 132 C13.401875 133.11375 12.80375 134.2275 12.1875 135.375 C1.85277108 153.51437897 -12.04564733 165.0383292 -32 171 C-46.04166525 174.4714735 -61.66120338 171.79791386 -74.40625 165.25 C-77.04838773 163.60221518 -79.53633032 161.90200405 -82 160 C-83.26457031 159.03513672 -83.26457031 159.03513672 -84.5546875 158.05078125 C-100.35767797 144.79747454 -106.46514451 123.55433334 -108.29833984 103.78222656 C-109.93701079 78.63593968 -104.88831934 54.21607354 -93 32 C-92.67781494 31.3910791 -92.35562988 30.7821582 -92.02368164 30.15478516 C-83.32428334 14.28768125 -69.57641007 -0.22102021 -52.5625 -7 C-35.16886773 -11.88242309 -14.95098839 -10.27044641 0 0 Z " fill="#FEFDFE" transform="translate(557,70)"/>
<path d="M0 0 C15.90428727 15.26090995 22.3639605 37.23292995 22.91748047 58.82519531 C23.08389914 77.42349636 20.5873128 95.79448501 12.625 112.6875 C11.90499581 114.53716594 11.1954305 116.39095547 10.5 118.25 C8.96082736 122.10109863 7.01510627 125.28340926 4.625 128.6875 C3.93418609 130.06083805 3.24704355 131.43602574 2.5625 132.8125 C-4.9577635 146.55322837 -19.13467515 159.24733881 -34.0625 163.9375 C-50.64191695 168.78226376 -66.71266404 167.44086145 -82.3359375 159.86328125 C-98.37769086 150.61315144 -107.82931046 135.51188245 -112.75 118.0625 C-120.25071653 86.33380531 -116.02749308 51.17845661 -98.89282227 23.08203125 C-95.45042689 17.61415184 -91.56680134 12.60266529 -87.375 7.6875 C-86.93671875 7.12804687 -86.4984375 6.56859375 -86.046875 5.9921875 C-77.83554144 -4.46357723 -65.66951705 -12.34199922 -52.3359375 -14.1015625 C-32.83415104 -15.49087183 -15.42468052 -13.14471266 0 0 Z " fill="#FEFDFE" transform="translate(414.375,75.3125)"/>
<path d="M0 0 C18.81 0 37.62 0 57 0 C57 67.32 57 134.64 57 204 C38.19 204 19.38 204 0 204 C0 136.68 0 69.36 0 0 Z " fill="#000000" transform="translate(868,61)"/>
<path d="M0 0 C8.19087761 4.09543881 12.12478357 11.18661899 15.08935547 19.48779297 C19.82983587 34.55968581 18.44309375 52.32499235 13 67 C12.62617188 68.07378906 12.25234375 69.14757812 11.8671875 70.25390625 C7.51247806 81.77514082 -0.44330964 91.60031435 -10.9375 98.22265625 C-15.93458492 100.10602727 -22.11598607 100.12455021 -27.09375 98.18359375 C-33.86448011 93.27481442 -38.39485536 81.97374197 -40 74 C-41.94454898 50.7542495 -39.3156012 30.48866766 -24.38671875 11.765625 C-17.74339554 4.06763346 -10.62359058 -1.70053878 0 0 Z " fill="#8054B4" transform="translate(379,101)"/>
<path d="M0 0 C9.04003483 5.56309836 12.54876675 14.91830061 14.94384766 24.83886719 C17.48659254 38.54604783 16.01525366 52.4320181 11.4375 65.5 C11.13714844 66.49128906 10.83679688 67.48257813 10.52734375 68.50390625 C6.75701979 80.2392436 -1.49195383 91.3257999 -12.2578125 97.609375 C-17.53023659 99.64685414 -23.45846571 99.87128317 -28.67578125 97.56640625 C-36.14913742 91.98210242 -39.56570163 82.06576399 -41.1940918 73.22119141 C-41.83328596 68.4998805 -41.85068624 63.81986934 -41.8125 59.0625 C-41.82023437 58.10279297 -41.82796875 57.14308594 -41.8359375 56.15429688 C-41.80988253 46.4813878 -40.50588807 37.41340909 -36.5 28.5625 C-36.19835937 27.88719238 -35.89671875 27.21188477 -35.5859375 26.51611328 C-28.9110805 12.21719137 -17.45861882 -3.40655977 0 0 Z " fill="#8054B4" transform="translate(531.5625,101.5)"/>
</svg>
