<?xml version="1.0" encoding="UTF-8"?>
<svg version="1.1" xmlns="http://www.w3.org/2000/svg" width="1461" height="300">
<path d="M0 0 C1.67419246 -0.00676637 3.34837868 -0.01526102 5.02255458 -0.02532321 C9.5998008 -0.04775278 14.1767431 -0.04540494 18.75402701 -0.03875387 C23.69965431 -0.03587149 28.64519805 -0.05595058 33.59078979 -0.07290649 C43.27085778 -0.10222304 52.95082147 -0.10955719 62.63092927 -0.10833099 C70.50146062 -0.10749772 78.37195907 -0.11336868 86.24248314 -0.12395668 C111.00507211 -0.15662193 135.76755975 -0.16562288 160.53016713 -0.15686695 C180.0490244 -0.15088548 199.56763047 -0.18128187 219.0864251 -0.22848966 C239.14458169 -0.27662232 259.20261738 -0.29866184 279.26083297 -0.29317886 C290.51549576 -0.29060494 301.7699179 -0.29854303 313.02453041 -0.3342495 C322.60601544 -0.36440918 332.18713454 -0.37009571 341.76863912 -0.34444048 C346.65361598 -0.33204177 351.5379055 -0.33073957 356.42282486 -0.36014938 C360.90218651 -0.38682462 365.38030649 -0.38068361 369.85962673 -0.34931944 C371.4725945 -0.34362275 373.08565809 -0.34953064 374.69852111 -0.36877545 C387.14241655 -0.50712574 397.06857746 2.14439442 406.920578 10.1960907 C415.19471933 18.7486887 421.46871848 27.98154847 421.4985199 40.16156006 C421.50297658 41.17775135 421.50297658 41.17775135 421.5075233 42.21447176 C421.51621034 44.48968857 421.51771858 46.76485275 421.51921082 49.04008484 C421.52383916 50.66960258 421.52886384 52.29911925 421.53425598 53.92863464 C421.54738451 58.36080485 421.55382637 62.79295991 421.55826664 67.22514653 C421.56119797 69.99602096 421.565303 72.76689125 421.56977081 75.5377636 C421.58344988 84.21209763 421.59311328 92.88642221 421.5969727 101.56076628 C421.60144797 111.56393545 421.61896942 121.5669676 421.6479733 131.57009512 C421.66962465 139.30698107 421.67967891 147.04382858 421.68101382 154.78074449 C421.68205982 159.39881591 421.68792316 164.01675861 421.70583344 168.63479805 C421.72237282 172.98422821 421.72444128 177.33343372 421.71569443 181.68288422 C421.71492706 183.27351167 421.71922694 184.86415148 421.72915268 186.45474815 C421.82064734 202.0394135 418.8085585 213.38115415 408.295578 225.27812195 C400.6735313 232.48252226 389.96773266 236.64707384 379.63684082 236.66234303 C378.61975372 236.66587137 378.61975372 236.66587137 377.58211941 236.669471 C375.29949648 236.6761525 373.01693059 236.67570303 370.73429871 236.67529297 C369.08535297 236.67859213 367.43640804 236.68231781 365.78746414 236.68643445 C361.24763659 236.69645678 356.70782225 236.70017162 352.1679852 236.70282376 C347.27479569 236.70672617 342.38161666 236.71630461 337.48843384 236.72503662 C325.66643394 236.74480373 313.84443318 236.75486796 302.02242088 236.76376441 C296.45522887 236.76814726 290.88803782 236.77351411 285.32084656 236.77875328 C266.81375832 236.79576648 248.30667067 236.81026033 229.79957581 236.81750202 C224.99632262 236.81941192 220.19306945 236.82133225 215.38981628 236.82328796 C214.19598949 236.8237717 213.0021627 236.82425544 211.77215934 236.82475384 C192.43587689 236.83305293 173.09965634 236.8583874 153.76340091 236.89086864 C133.91115723 236.92394471 114.058945 236.94195132 94.20667362 236.94514626 C83.06045762 236.94731094 71.91433184 236.95605343 60.7681427 236.98160744 C51.27471691 237.00332195 41.78140327 237.01136115 32.28795546 237.00164066 C27.44596624 236.99709805 22.60420835 236.99897998 17.7622509 237.0184021 C13.32433658 237.03604939 8.8868221 237.03502335 4.44890344 237.01950481 C2.84854604 237.0171311 1.24816083 237.02143991 -0.35215414 237.03333346 C-15.32604111 237.1376723 -27.51892828 234.25911203 -38.641922 223.61405945 C-49.80851392 211.53296216 -50.94363597 199.07636439 -50.94831848 183.24320984 C-50.95595035 181.60295234 -50.96437959 179.96269839 -50.97354126 178.32244873 C-50.99538598 173.8885603 -51.00427105 169.45474079 -51.0093677 165.02080464 C-51.01302177 162.24620651 -51.01926709 159.47162615 -51.02636909 156.69703484 C-51.05082423 147.00506173 -51.06390793 137.3131419 -51.06745911 127.62113953 C-51.0710961 118.60568381 -51.10101333 109.59056813 -51.14286369 100.57521635 C-51.1776082 92.81696924 -51.19300823 85.0588347 -51.19370514 77.30051035 C-51.19449623 72.67461426 -51.20315817 68.04906544 -51.2317028 63.4232502 C-51.25795663 59.07197033 -51.26004823 54.72132404 -51.24404716 50.37000084 C-51.24223875 48.77936033 -51.24886828 47.18868273 -51.26486588 45.59812164 C-51.35061704 36.51388512 -50.7839455 29.28206562 -45.641922 21.52812195 C-44.70799622 20.08372742 -44.70799622 20.08372742 -43.75520325 18.6101532 C-31.92440268 3.69975161 -18.44479376 -0.08672319 0 0 Z " fill="#7E53B2" transform="translate(67.64192199707031,31.471878051757813)"/>
<path d="M0 0 C66.70795455 0 66.70795455 0 77.75 10.25 C85.09847293 18.05146099 86.57222997 26.59019976 86.33984375 37.03125 C85.62067413 45.42982854 82.34561906 52.84565802 76.046875 58.53125 C72.30001256 61.21983832 68.21537199 63.15948547 64 65 C64.99 65.70125 65.98 66.4025 67 67.125 C71.93688606 71.41281339 74.68573089 76.90699267 77.71191406 82.59472656 C79.25125385 85.46917228 80.82463176 88.32397064 82.3984375 91.1796875 C83.59976647 93.36934848 84.8002842 95.55945474 86 97.75 C86.58861816 98.82233887 87.17723633 99.89467773 87.78369141 100.99951172 C88.32944824 102.0051416 88.87520508 103.01077148 89.4375 104.046875 C89.93121094 104.95276367 90.42492187 105.85865234 90.93359375 106.79199219 C92 109 92 109 92 111 C84.74 111 77.48 111 70 111 C69.07058594 109.26234375 68.14117187 107.5246875 67.18359375 105.734375 C66.25691154 104.00642622 65.33021217 102.27848659 64.40307617 100.55078125 C63.46446629 98.80029162 62.52809814 97.04860055 61.59179688 95.296875 C59.74401392 91.85550146 57.87773607 88.42511606 56 85 C55.38914551 83.87916016 54.77829102 82.75832031 54.14892578 81.60351562 C53.25729736 80.01313477 53.25729736 80.01313477 52.34765625 78.390625 C51.82308838 77.44735352 51.29852051 76.50408203 50.75805664 75.53222656 C48.12195348 71.73530086 45.38649506 69.46216502 41 68 C34.07 67.67 27.14 67.34 20 67 C20 81.52 20 96.04 20 111 C13.4 111 6.8 111 0 111 C0 74.37 0 37.74 0 0 Z " fill="#FDFCFD" transform="translate(162,95)"/>
<path d="M0 0 C66.70795455 0 66.70795455 0 77.75 10.25 C85.09847293 18.05146099 86.57222997 26.59019976 86.33984375 37.03125 C85.62067413 45.42982854 82.34561906 52.84565802 76.046875 58.53125 C72.30001256 61.21983832 68.21537199 63.15948547 64 65 C64.99 65.70125 65.98 66.4025 67 67.125 C71.93688606 71.41281339 74.68573089 76.90699267 77.71191406 82.59472656 C79.25125385 85.46917228 80.82463176 88.32397064 82.3984375 91.1796875 C83.59976647 93.36934848 84.8002842 95.55945474 86 97.75 C86.58861816 98.82233887 87.17723633 99.89467773 87.78369141 100.99951172 C88.32944824 102.0051416 88.87520508 103.01077148 89.4375 104.046875 C89.93121094 104.95276367 90.42492187 105.85865234 90.93359375 106.79199219 C92 109 92 109 92 111 C84.74 111 77.48 111 70 111 C69.07058594 109.26234375 68.14117187 107.5246875 67.18359375 105.734375 C66.25691154 104.00642622 65.33021217 102.27848659 64.40307617 100.55078125 C63.46446629 98.80029162 62.52809814 97.04860055 61.59179688 95.296875 C59.74401392 91.85550146 57.87773607 88.42511606 56 85 C55.38914551 83.87916016 54.77829102 82.75832031 54.14892578 81.60351562 C53.25729736 80.01313477 53.25729736 80.01313477 52.34765625 78.390625 C51.82308838 77.44735352 51.29852051 76.50408203 50.75805664 75.53222656 C48.12195348 71.73530086 45.38649506 69.46216502 41 68 C34.07 67.67 27.14 67.34 20 67 C20 81.52 20 96.04 20 111 C13.4 111 6.8 111 0 111 C0 74.37 0 37.74 0 0 Z " fill="#FDFCFD" transform="translate(55,95)"/>
<path d="M0 0 C16 0 16 0 20.2734375 3.48046875 C21.36061284 5.01301497 22.3937533 6.58506341 23.375 8.1875 C23.94186523 9.00887451 24.50873047 9.83024902 25.09277344 10.67651367 C26.2332114 12.32898829 27.3542172 13.99506498 28.45410156 15.67480469 C30.56453066 18.84911402 32.88672206 21.82491578 35.25 24.8125 C36.83359645 26.87479799 38.4169332 28.93729541 40 31 C41.66609253 33.16710847 43.33305199 35.33354953 45 37.5 C45.83334905 38.58332124 46.66668241 39.66665456 47.5 40.75 C47.9125 41.28625 48.325 41.8225 48.75 42.375 C50 44 51.25 45.625 52.5 47.25 C52.91306396 47.7869751 53.32612793 48.3239502 53.75170898 48.87719727 C54.57937721 49.95318215 55.40701428 51.02919099 56.23461914 52.10522461 C58.40436481 54.92619349 60.57475903 57.74666025 62.74609375 60.56640625 C63.19662109 61.15164062 63.64714844 61.736875 64.11132812 62.33984375 C65.36442113 63.9675728 66.61775014 65.59512016 67.87109375 67.22265625 C69.59464158 69.47117461 71.30014039 71.73352052 73 74 C73.33 49.58 73.66 25.16 74 0 C80.6 0 87.2 0 94 0 C94 36.96 94 73.92 94 112 C78 112 78 112 72.5625 106.75 C71.19165039 104.96948242 71.19165039 104.96948242 70.22265625 103.41796875 C68.12913174 100.17653006 65.8508998 97.12480252 63.5 94.0625 C62.76652344 93.0725 62.03304687 92.0825 61.27734375 91.0625 C58.90381473 87.87065309 56.4918242 84.71190322 54.0625 81.5625 C53.64395752 81.01956299 53.22541504 80.47662598 52.79418945 79.91723633 C51.9473273 78.81916281 51.10024084 77.72126225 50.25292969 76.62353516 C44.23450542 68.82491447 38.23673486 61.01046282 32.25 53.1875 C31.71914795 52.49430664 31.1882959 51.80111328 30.64135742 51.08691406 C29.86755737 50.07516113 29.86755737 50.07516113 29.078125 49.04296875 C28.62856445 48.45539795 28.17900391 47.86782715 27.71582031 47.26245117 C25.12965391 43.8523766 22.56789242 40.42385656 20 37 C19.67 61.75 19.34 86.5 19 112 C12.73 112 6.46 112 0 112 C0 75.04 0 38.08 0 0 Z " fill="#FFFFFF" transform="translate(528,95)"/>
<path d="M0 0 C1.85546875 1.3671875 1.85546875 1.3671875 3.85546875 3.3671875 C3.46418731 7.42940028 1.88960515 10.95420257 0.29296875 14.6796875 C-0.16207031 15.74832031 -0.61710937 16.81695312 -1.0859375 17.91796875 C-1.60994141 19.13033203 -1.60994141 19.13033203 -2.14453125 20.3671875 C-5.87353055 18.95437902 -9.31677226 17.24449537 -12.83203125 15.3671875 C-24.56973742 9.49116854 -37.15331601 8.55965165 -49.7421875 12.4609375 C-56.79503088 15.12152232 -62.02852107 20.12844965 -65.375 26.83203125 C-70.69848275 39.61223352 -71.20129614 55.36677328 -66.14453125 68.3671875 C-61.21770937 77.7819477 -55.05536316 82.00458382 -45.14453125 85.3671875 C-36.72788326 87.5161189 -27.94645467 86.58438481 -19.5546875 84.8046875 C-17.14453125 84.3671875 -17.14453125 84.3671875 -13.14453125 84.3671875 C-13.14453125 76.1171875 -13.14453125 67.8671875 -13.14453125 59.3671875 C-21.39453125 59.3671875 -29.64453125 59.3671875 -38.14453125 59.3671875 C-38.14453125 54.0871875 -38.14453125 48.8071875 -38.14453125 43.3671875 C-23.95453125 43.3671875 -9.76453125 43.3671875 4.85546875 43.3671875 C4.85546875 61.1871875 4.85546875 79.0071875 4.85546875 97.3671875 C-14.67725851 106.04839961 -38.44592109 109.1894906 -59.14453125 102.3671875 C-70.6730159 97.85420753 -80.52021575 90.6158185 -86.14453125 79.3671875 C-93.77308739 59.80996769 -95.21108198 38.80150001 -86.7890625 19.21484375 C-79.9263343 5.80216585 -69.84587521 -2.03384368 -55.65234375 -6.90625 C-37.84334843 -12.06586547 -15.60424463 -10.08917659 0 0 Z " fill="#FFFFFF" transform="translate(1045.14453125,102.6328125)"/>
<path d="M0 0 C5.94 0 11.88 0 18 0 C22.75504011 9.33283579 27.18987054 18.73560511 31.39447021 28.3270874 C37.42290509 42.07071811 43.5931408 55.74551956 49.875 69.375 C50.59222664 70.9328508 51.30943069 72.49071201 52.02661133 74.04858398 C54.58488243 79.60304382 57.14504791 85.15661745 59.71630859 90.70507812 C61.16959014 93.84297807 62.61670056 96.98364792 64.0625 100.125 C64.6800415 101.44830322 64.6800415 101.44830322 65.31005859 102.79833984 C65.67309082 103.58934082 66.03612305 104.3803418 66.41015625 105.1953125 C66.87627319 106.20102295 66.87627319 106.20102295 67.35180664 107.22705078 C68 109 68 109 68 112 C61.07 112 54.14 112 47 112 C36 90.51162791 36 90.51162791 36 86 C18.51 86.33 1.02 86.66 -17 87 C-20.63 95.25 -24.26 103.5 -28 112 C-34.93 112 -41.86 112 -49 112 C-48.21232743 107.27396457 -47.59512374 104.67139964 -45.62109375 100.5546875 C-45.1206958 99.49725342 -44.62029785 98.43981934 -44.10473633 97.3503418 C-43.27945435 95.63004761 -43.27945435 95.63004761 -42.4375 93.875 C-41.23694931 91.33969477 -40.04356186 88.80105411 -38.8515625 86.26171875 C-38.3812838 85.26139366 -38.3812838 85.26139366 -37.90150452 84.24085999 C-34.24920894 76.44420745 -30.78529182 68.56526766 -27.3125 60.6875 C-20.60145831 45.48007953 -13.68333774 30.37410021 -6.67504883 15.30151367 C-6.30285217 14.4998175 -5.93065552 13.69812134 -5.54718018 12.87213135 C-4.84936261 11.36967326 -4.15010412 9.86788326 -3.44915771 8.36688232 C-2.16410305 5.60052076 -0.96555846 2.89667539 0 0 Z M9 24 C4.77364542 32.96919937 0.81077649 42.02160403 -3.00683594 51.17041016 C-3.89200476 53.29073301 -4.78172195 55.40910918 -5.671875 57.52734375 C-6.23724305 58.8774937 -6.80235738 60.22774992 -7.3671875 61.578125 C-7.87362793 62.78887695 -8.38006836 63.99962891 -8.90185547 65.24707031 C-10.06175166 67.66082591 -10.06175166 67.66082591 -10 69 C2.54 69 15.08 69 28 69 C25.98168095 62.94504286 23.89745474 57.1046586 21.42578125 51.24609375 C21.09708542 50.45977066 20.76838959 49.67344757 20.42973328 48.86329651 C19.39368719 46.38674815 18.35318065 43.91210389 17.3125 41.4375 C16.60321793 39.74426529 15.89423091 38.05090697 15.18554688 36.35742188 C13.46043384 32.23684632 11.73132184 28.11797046 10 24 C9.67 24 9.34 24 9 24 Z " fill="#FFFFFF" transform="translate(1109,95)"/>
<path d="M0 0 C5.94 0 11.88 0 18 0 C22.75504011 9.33283579 27.18987054 18.73560511 31.39447021 28.3270874 C37.42290509 42.07071811 43.5931408 55.74551956 49.875 69.375 C50.59222664 70.9328508 51.30943069 72.49071201 52.02661133 74.04858398 C54.58488243 79.60304382 57.14504791 85.15661745 59.71630859 90.70507812 C61.16959014 93.84297807 62.61670056 96.98364792 64.0625 100.125 C64.6800415 101.44830322 64.6800415 101.44830322 65.31005859 102.79833984 C65.67309082 103.58934082 66.03612305 104.3803418 66.41015625 105.1953125 C66.87627319 106.20102295 66.87627319 106.20102295 67.35180664 107.22705078 C68 109 68 109 68 112 C61.07 112 54.14 112 47 112 C36 90.51162791 36 90.51162791 36 86 C18.51 86.33 1.02 86.66 -17 87 C-20.63 95.25 -24.26 103.5 -28 112 C-34.93 112 -41.86 112 -49 112 C-48.21232743 107.27396457 -47.59512374 104.67139964 -45.62109375 100.5546875 C-45.1206958 99.49725342 -44.62029785 98.43981934 -44.10473633 97.3503418 C-43.27945435 95.63004761 -43.27945435 95.63004761 -42.4375 93.875 C-41.23694931 91.33969477 -40.04356186 88.80105411 -38.8515625 86.26171875 C-38.3812838 85.26139366 -38.3812838 85.26139366 -37.90150452 84.24085999 C-34.24920894 76.44420745 -30.78529182 68.56526766 -27.3125 60.6875 C-20.60145831 45.48007953 -13.68333774 30.37410021 -6.67504883 15.30151367 C-6.30285217 14.4998175 -5.93065552 13.69812134 -5.54718018 12.87213135 C-4.84936261 11.36967326 -4.15010412 9.86788326 -3.44915771 8.36688232 C-2.16410305 5.60052076 -0.96555846 2.89667539 0 0 Z M9 24 C4.77364542 32.96919937 0.81077649 42.02160403 -3.00683594 51.17041016 C-3.89200476 53.29073301 -4.78172195 55.40910918 -5.671875 57.52734375 C-6.23724305 58.8774937 -6.80235738 60.22774992 -7.3671875 61.578125 C-7.87362793 62.78887695 -8.38006836 63.99962891 -8.90185547 65.24707031 C-10.06175166 67.66082591 -10.06175166 67.66082591 -10 69 C2.54 69 15.08 69 28 69 C25.98168095 62.94504286 23.89745474 57.1046586 21.42578125 51.24609375 C21.09708542 50.45977066 20.76838959 49.67344757 20.42973328 48.86329651 C19.39368719 46.38674815 18.35318065 43.91210389 17.3125 41.4375 C16.60321793 39.74426529 15.89423091 38.05090697 15.18554688 36.35742188 C13.46043384 32.23684632 11.73132184 28.11797046 10 24 C9.67 24 9.34 24 9 24 Z " fill="#FFFFFF" transform="translate(682,95)"/>
<path d="M0 0 C24.42 0 48.84 0 74 0 C74 5.61 74 11.22 74 17 C56.18 17 38.36 17 20 17 C20 26.57 20 36.14 20 46 C36.83 46 53.66 46 71 46 C71 51.61 71 57.22 71 63 C54.17 63 37.34 63 20 63 C20 73.56 20 84.12 20 95 C37.82 95 55.64 95 74 95 C74 100.61 74 106.22 74 112 C49.58 112 25.16 112 0 112 C0 75.04 0 38.08 0 0 Z " fill="#FFFFFF" transform="translate(1274,95)"/>
<path d="M0 0 C24.42 0 48.84 0 74 0 C74 5.61 74 11.22 74 17 C56.18 17 38.36 17 20 17 C20 26.57 20 36.14 20 46 C36.83 46 53.66 46 71 46 C71 51.61 71 57.22 71 63 C54.17 63 37.34 63 20 63 C20 73.56 20 84.12 20 95 C37.82 95 55.64 95 74 95 C74 100.61 74 106.22 74 112 C49.58 112 25.16 112 0 112 C0 75.04 0 38.08 0 0 Z " fill="#FFFFFF" transform="translate(864,95)"/>
<path d="M0 0 C0.88107422 0.00563965 1.76214844 0.0112793 2.66992188 0.01708984 C15.79733411 0.26063662 27.84020689 4.06322999 38.25 12.3125 C37.62183502 16.26199704 36.3854471 19.51142028 34.6875 23.125 C34.23246094 24.10082031 33.77742188 25.07664062 33.30859375 26.08203125 C32.78458984 27.18611328 32.78458984 27.18611328 32.25 28.3125 C31.67894531 27.92578125 31.10789062 27.5390625 30.51953125 27.140625 C18.2729012 19.27474497 5.70653632 16.4103325 -8.6875 19.0625 C-13.8826977 20.43517609 -17.50763989 22.5892263 -20.6875 27 C-22.10039736 31.4049153 -22.06148897 34.87802792 -20.75 39.3125 C-15.30041396 47.14627993 -4.25046098 47.93551848 4.5 49.6875 C29.90545013 55.0616521 29.90545013 55.0616521 38.25 65.3125 C42.26253561 71.87648488 43.30085818 78.73982097 42.25 86.3125 C40.01306137 95.24701821 34.95118541 102.11027462 27.25 107.125 C11.94323817 115.84663485 -5.33173553 116.08369233 -22.203125 112.29296875 C-30.61011171 109.96901097 -37.91812529 106.74694579 -44.75 101.3125 C-42.77 96.0325 -40.79 90.7525 -38.75 85.3125 C-31.3125 89.1875 -31.3125 89.1875 -29.02954102 90.39794922 C-20.40799739 94.79454886 -12.27841793 95.65795848 -2.6875 95.625 C-1.74583984 95.64111328 -0.80417969 95.65722656 0.16601562 95.67382812 C7.22070976 95.67873745 13.12737187 94.8886682 18.75 90.25 C20.88741199 86.06423486 21.40403 81.89994846 20.25 77.3125 C16.86208974 73.03565181 14.00110268 71.54248801 8.75 70.3125 C8.11489502 70.15644287 7.47979004 70.00038574 6.82543945 69.83959961 C3.77943291 69.0991679 0.7210051 68.41761206 -2.33837891 67.73486328 C-23.72408651 62.95724615 -23.72408651 62.95724615 -30.75 58.3125 C-31.32492187 57.94640625 -31.89984375 57.5803125 -32.4921875 57.203125 C-37.83028104 53.32570382 -41.55704581 46.77636402 -42.75 40.3125 C-43.7264535 29.39542968 -41.7350937 21.55617111 -34.75 13.0625 C-25.39255546 3.25799468 -13.16865992 -0.08843114 0 0 Z " fill="#FCFBFD" transform="translate(407.75,93.6875)"/>
<path d="M0 0 C0.88107422 0.00563965 1.76214844 0.0112793 2.66992188 0.01708984 C15.79733411 0.26063662 27.84020689 4.06322999 38.25 12.3125 C37.62183502 16.26199704 36.3854471 19.51142028 34.6875 23.125 C34.23246094 24.10082031 33.77742188 25.07664062 33.30859375 26.08203125 C32.78458984 27.18611328 32.78458984 27.18611328 32.25 28.3125 C31.67894531 27.92578125 31.10789062 27.5390625 30.51953125 27.140625 C18.2729012 19.27474497 5.70653632 16.4103325 -8.6875 19.0625 C-13.8826977 20.43517609 -17.50763989 22.5892263 -20.6875 27 C-22.10039736 31.4049153 -22.06148897 34.87802792 -20.75 39.3125 C-15.30041396 47.14627993 -4.25046098 47.93551848 4.5 49.6875 C29.90545013 55.0616521 29.90545013 55.0616521 38.25 65.3125 C42.26253561 71.87648488 43.30085818 78.73982097 42.25 86.3125 C40.01306137 95.24701821 34.95118541 102.11027462 27.25 107.125 C11.94323817 115.84663485 -5.33173553 116.08369233 -22.203125 112.29296875 C-30.61011171 109.96901097 -37.91812529 106.74694579 -44.75 101.3125 C-42.77 96.0325 -40.79 90.7525 -38.75 85.3125 C-31.3125 89.1875 -31.3125 89.1875 -29.02954102 90.39794922 C-20.40799739 94.79454886 -12.27841793 95.65795848 -2.6875 95.625 C-1.74583984 95.64111328 -0.80417969 95.65722656 0.16601562 95.67382812 C7.22070976 95.67873745 13.12737187 94.8886682 18.75 90.25 C20.88741199 86.06423486 21.40403 81.89994846 20.25 77.3125 C16.86208974 73.03565181 14.00110268 71.54248801 8.75 70.3125 C8.11489502 70.15644287 7.47979004 70.00038574 6.82543945 69.83959961 C3.77943291 69.0991679 0.7210051 68.41761206 -2.33837891 67.73486328 C-23.72408651 62.95724615 -23.72408651 62.95724615 -30.75 58.3125 C-31.32492187 57.94640625 -31.89984375 57.5803125 -32.4921875 57.203125 C-37.83028104 53.32570382 -41.55704581 46.77636402 -42.75 40.3125 C-43.7264535 29.39542968 -41.7350937 21.55617111 -34.75 13.0625 C-25.39255546 3.25799468 -13.16865992 -0.08843114 0 0 Z " fill="#FCFBFD" transform="translate(309.75,93.6875)"/>
<path d="M0 0 C7.26 0 14.52 0 22 0 C26.7286394 9.20537259 30.90402178 18.53868954 34.9375 28.0625 C35.58237247 29.57739641 36.22764399 31.092123 36.87329102 32.60668945 C38.22173116 35.7706789 39.56844089 38.93539684 40.9140625 42.10058594 C44.06987167 49.51882054 47.25020171 56.92655413 50.42849731 64.33517456 C52.03528103 68.08112912 53.64065152 71.82768911 55.24609375 75.57421875 C55.78441683 76.83032526 56.32274613 78.08642911 56.86108398 79.3425293 C57.23692627 80.21949463 57.61276855 81.09645996 58 82 C61.74882874 74.74571987 65.06816678 67.36676633 68.23828125 59.84375 C68.72274216 58.70200317 69.20720306 57.56025635 69.7063446 56.38391113 C71.24474833 52.75721105 72.77891889 49.12874168 74.3125 45.5 C76.32740456 40.73872433 78.34432401 35.97830859 80.36328125 31.21875 C80.84733429 30.07736572 81.33138733 28.93598145 81.83010864 27.76000977 C85.78415131 18.4589934 89.86003473 9.21970761 94 0 C101.26 0 108.52 0 116 0 C113.94238501 6.17284496 111.81687485 11.93458369 109.11328125 17.80078125 C108.73918625 18.62261902 108.36509125 19.44445679 107.97966003 20.29119873 C107.17764922 22.05211421 106.37366728 23.81213307 105.56787109 25.57131958 C103.41731007 30.26720257 101.28204739 34.97004363 99.14453125 39.671875 C98.71081207 40.62485977 98.2770929 41.57784454 97.83023071 42.55970764 C93.67082167 51.70547358 89.57355424 60.8782255 85.5 70.0625 C85.01063461 71.16526779 85.01063461 71.16526779 84.51138306 72.29031372 C78.64480499 85.51389186 72.81136134 98.75206609 67 112 C61.06 112 55.12 112 49 112 C43.79938983 100.91717939 38.70838507 89.79026643 33.6875 78.625 C33.11497498 77.35322403 33.11497498 77.35322403 32.53088379 76.05575562 C25.59547888 60.64336676 18.77526882 45.18157651 12.0144043 29.69189453 C11.30655691 28.07190556 10.59863274 26.45195014 9.890625 24.83203125 C9.38895561 23.68196594 9.38895561 23.68196594 8.87715149 22.50866699 C6.36737728 16.77724119 3.73688662 11.11316949 1.02246094 5.4753418 C0 3 0 3 0 0 Z " fill="#FFFFFF" transform="translate(738,95)"/>
<path d="M0 0 C32.01 0 64.02 0 97 0 C97 5.94 97 11.88 97 18 C84.46 18 71.92 18 59 18 C59 49.02 59 80.04 59 112 C52.07 112 45.14 112 38 112 C38 80.98 38 49.96 38 18 C25.46 18 12.92 18 0 18 C0 12.06 0 6.12 0 0 Z " fill="#FFFFFF" transform="translate(1165,95)"/>
<path d="M0 0 C6.93 0 13.86 0 21 0 C21 30.69 21 61.38 21 93 C38.49 93 55.98 93 74 93 C74 99.27 74 105.54 74 112 C49.58 112 25.16 112 0 112 C0 75.04 0 38.08 0 0 Z " fill="#FFFFFF" transform="translate(1367,95)"/>
<path d="M0 0 C4.74375 -0.0825 9.4875 -0.165 14.375 -0.25 C15.8501709 -0.28641602 17.3253418 -0.32283203 18.84521484 -0.36035156 C28.23537724 -0.43897277 35.65073018 0.44957566 43.0625 6.5 C47.00191356 11.58311428 46.485133 17.81006223 46 24 C44.28169312 29.25038213 41.82402886 31.402446 37 34 C32.10744268 35.65155507 27.90675152 36.23954293 22.75390625 36.1953125 C21.5532251 36.19031738 20.35254395 36.18532227 19.11547852 36.18017578 C17.61299561 36.16196777 16.1105127 36.14375977 14.5625 36.125 C9.756875 36.08375 4.95125 36.0425 0 36 C0 24.12 0 12.24 0 0 Z " fill="#8156B4" transform="translate(182,111)"/>
<path d="M0 0 C4.74375 -0.0825 9.4875 -0.165 14.375 -0.25 C15.8501709 -0.28641602 17.3253418 -0.32283203 18.84521484 -0.36035156 C28.23537724 -0.43897277 35.65073018 0.44957566 43.0625 6.5 C47.00191356 11.58311428 46.485133 17.81006223 46 24 C44.28169312 29.25038213 41.82402886 31.402446 37 34 C32.10744268 35.65155507 27.90675152 36.23954293 22.75390625 36.1953125 C21.5532251 36.19031738 20.35254395 36.18532227 19.11547852 36.18017578 C17.61299561 36.16196777 16.1105127 36.14375977 14.5625 36.125 C9.756875 36.08375 4.95125 36.0425 0 36 C0 24.12 0 12.24 0 0 Z " fill="#8156B4" transform="translate(75,111)"/>
<path d="M0 0 C0.66 0.33 1.32 0.66 2 1 C-1.3 4.3 -4.6 7.6 -8 11 C-8.66 10.67 -9.32 10.34 -10 10 C-3.84965831 2.51708428 -3.84965831 2.51708428 0 0 Z " fill="#6B4596" transform="translate(35,39)"/>
</svg>
