<?xml version="1.0" encoding="utf-8"?>
<!-- Generator: Adobe Illustrator 28.2.0, SVG Export Plug-In . SVG Version: 6.00 Build 0)  -->
<svg version="1.1" id="Capa_2_00000134943664099778631770000018148682806183499439_"
	 xmlns="http://www.w3.org/2000/svg" xmlns:xlink="http://www.w3.org/1999/xlink" x="0px" y="0px" viewBox="0 0 533 90.9"
	 style="enable-background:new 0 0 533 90.9;" xml:space="preserve">
<style type="text/css">
	.st0{fill-rule:evenodd;clip-rule:evenodd;fill:#FFFFFF;}
	.st1{fill-rule:evenodd;clip-rule:evenodd;fill:#75549D;}
	.st2{fill:#FFFFFF;}
</style>
<g>
	<g>
		<path class="st0" d="M213.6,68.5V42.8c0-3.8-0.7-6.6-2.2-8.3c-1.4-1.7-3.8-2.6-7.1-2.6c-1.5,0-3.2,0.4-4.9,1.3
			c-1.7,0.9-3.1,1.9-4,3.2v32.2h-10.4V24h7.5l1.9,4.2c2.8-3.3,7-5,12.5-5c5.3,0,9.5,1.6,12.5,4.8c3.1,3.2,4.6,7.6,4.6,13.3v27.4
			H213.6z"/>
		<path class="st0" d="M256.4,64.1c-0.9,1.6-2.6,2.8-5,3.8c-2.3,1-4.8,1.5-7.3,1.5c-4.8,0-8.6-1.2-11.3-3.6
			c-2.7-2.4-4.1-5.8-4.1-10.2c0-5.2,1.9-9.2,5.8-12.1c3.9-2.9,9.4-4.4,16.5-4.4c1.2,0,2.7,0.2,4.3,0.6c0-5.2-3.3-7.9-9.9-7.9
			c-3.9,0-7.2,0.7-9.8,2l-2.2-8.1c3.6-1.7,7.8-2.6,12.8-2.6c6.8,0,11.8,1.6,14.9,4.7c3.2,3.1,4.7,8.9,4.7,17.6v9.5
			c0,5.9,1.2,9.7,3.6,11.2c-0.9,1.5-1.8,2.4-2.9,2.7c-1.1,0.4-2.3,0.5-3.6,0.5c-1.5,0-2.8-0.6-4-1.7
			C257.6,66.6,256.8,65.4,256.4,64.1z M255.4,47.6c-1.8-0.4-3.1-0.5-4-0.5c-8.2,0-12.3,2.7-12.3,8.1c0,4,2.3,6,6.9,6
			c6.2,0,9.4-3.1,9.4-9.4V47.6z"/>
		<polygon class="st0" points="289.1,69.4 285.3,69.4 265.2,24 276.6,24 287.2,51.2 298.7,24 309.7,24 		"/>
		<path class="st0" d="M349.9,49.4H318c0.2,3.6,1.4,6.3,3.7,8.3c2.2,2,5.3,3,9.1,3c4.7,0,8.3-1.2,10.8-3.7l4,8
			c-3.7,3-9.1,4.5-16.4,4.5c-6.8,0-12.2-2-16.1-6c-3.9-4-5.9-9.6-5.9-16.7c0-7,2.2-12.7,6.5-17.1c4.4-4.4,9.6-6.5,15.6-6.5
			c6.5,0,11.6,1.9,15.6,5.8c3.9,3.9,5.9,8.8,5.9,14.7C350.7,44.9,350.4,46.9,349.9,49.4z M318.4,41.6h21.9
			c-0.7-6.5-4.3-9.8-10.8-9.8C323.5,31.8,319.8,35.1,318.4,41.6z"/>
		<path class="st0" d="M355,80l6.6-8.1c3.6,3.3,7.7,5,12.1,5c3,0,5.5-0.4,7.4-1.3c1.9-0.9,2.9-2.1,2.9-3.7c0-2.6-2.2-4-6.4-4
			c-1.2,0-2.9,0.1-5.2,0.4c-2.3,0.3-4,0.4-5.2,0.4c-7.2,0-10.7-2.6-10.7-7.7c0-1.5,0.6-2.9,1.8-4.3c1.2-1.4,2.6-2.5,4.2-3.1
			c-5.1-3.3-7.6-8-7.6-14c0-4.8,1.7-8.7,5.2-11.8c3.5-3.1,7.8-4.7,12.9-4.7c4,0,7.3,0.7,10,2.2l4.1-4.7l7.2,6.5l-5,3.6
			c1.7,2.6,2.6,5.7,2.6,9.2c0,5.1-1.6,9.1-4.7,12.2c-3.1,3-7,4.5-11.7,4.5c-0.7,0-1.7-0.1-3-0.2l-1.7-0.2c-0.2,0-0.9,0.3-2.2,0.9
			c-1.3,0.6-1.9,1.2-1.9,1.8c0,1.1,1,1.7,2.9,1.7c0.9,0,2.3-0.2,4.3-0.6c2-0.4,3.8-0.6,5.2-0.6c10.1,0,15.2,4.1,15.2,12.2
			c0,4.5-2,8-6.1,10.6c-4.1,2.6-8.9,3.9-14.6,3.9C366.7,86,360.5,84,355,80z M365.4,39.6c0,2.6,0.7,4.8,2.2,6.4
			c1.5,1.6,3.4,2.4,5.9,2.4c2.5,0,4.4-0.8,5.7-2.3c1.3-1.6,2-3.7,2-6.4c0-2.2-0.7-4.1-2.2-5.7c-1.4-1.6-3.3-2.3-5.5-2.3
			c-2.4,0-4.3,0.7-5.8,2.2C366.1,35.3,365.4,37.2,365.4,39.6z"/>
		<path class="st0" d="M424.1,64.1c-0.9,1.6-2.6,2.8-5,3.8c-2.3,1-4.8,1.5-7.3,1.5c-4.8,0-8.6-1.2-11.3-3.6
			c-2.7-2.4-4.1-5.8-4.1-10.2c0-5.2,1.9-9.2,5.8-12.1c3.9-2.9,9.4-4.4,16.5-4.4c1.2,0,2.7,0.2,4.3,0.6c0-5.2-3.3-7.9-9.9-7.9
			c-3.9,0-7.2,0.7-9.8,2l-2.2-8.1c3.6-1.7,7.8-2.6,12.8-2.6c6.8,0,11.8,1.6,14.9,4.7c3.2,3.1,4.7,8.9,4.7,17.6v9.5
			c0,5.9,1.2,9.7,3.6,11.2c-0.9,1.5-1.8,2.4-2.9,2.7c-1.1,0.4-2.3,0.5-3.6,0.5c-1.5,0-2.8-0.6-4-1.7
			C425.3,66.6,424.5,65.4,424.1,64.1z M423.1,47.6c-1.8-0.4-3.1-0.5-4-0.5c-8.2,0-12.3,2.7-12.3,8.1c0,4,2.3,6,6.9,6
			c6.2,0,9.4-3.1,9.4-9.4V47.6z"/>
		<path class="st0" d="M442.8,32.3h-5.2V24h5.2v-9.1l10.4-3.8V24h12.2v8.4h-12.2v19.5c0,3.2,0.5,5.5,1.5,6.8c1,1.3,2.7,2,5.2,2
			s4.8-0.7,7-2v9.6c-2.4,0.8-5.9,1.2-10.3,1.2c-4.4,0-7.9-1.2-10.2-3.7c-2.4-2.5-3.6-6.1-3.6-10.7V32.3z"/>
		<path class="st0" d="M510.4,49.4h-31.8c0.2,3.6,1.4,6.3,3.7,8.3c2.2,2,5.3,3,9.1,3c4.7,0,8.3-1.2,10.8-3.7l4,8
			c-3.7,3-9.1,4.5-16.4,4.5c-6.8,0-12.2-2-16.1-6c-3.9-4-5.9-9.6-5.9-16.7c0-7,2.2-12.7,6.5-17.1c4.4-4.4,9.6-6.5,15.6-6.5
			c6.5,0,11.6,1.9,15.6,5.8c3.9,3.9,5.9,8.8,5.9,14.7C511.3,44.9,511,46.9,510.4,49.4z M478.9,41.6h21.9c-0.7-6.5-4.3-9.8-10.8-9.8
			C484.1,31.8,480.4,35.1,478.9,41.6z"/>
		<path class="st0" d="M515.6,7.3L526,4.8V55c0,5.5,1.6,8.8,4.9,9.8c-1.6,3.1-4.4,4.6-8.2,4.6c-4.7,0-7.1-3.3-7.1-9.8V7.3z"/>
	</g>
	<path class="st1" d="M155.9,85.3H15.3C8,85.3,2,79.3,2,72V20.6C2,13.2,8,7.3,15.3,7.3h140.6c7.3,0,13.3,6,13.3,13.3V72
		C169.2,79.3,163.3,85.3,155.9,85.3z"/>
	<g>
		<path class="st2" d="M44.6,68.7l-12-18.5c-1.2,0-2.9-0.1-5-0.2v18.7h-8.3V23.9c0.4,0,2.2-0.1,5.2-0.2c3-0.2,5.4-0.2,7.2-0.2
			c11.4,0,17.1,4.4,17.1,13.2c0,2.6-0.8,5.1-2.4,7.2c-1.6,2.2-3.5,3.7-5.9,4.6l13.2,20.2H44.6z M27.6,30.8v12.4
			c1.5,0.1,2.6,0.2,3.4,0.2c3.3,0,5.8-0.5,7.3-1.4c1.5-0.9,2.3-2.8,2.3-5.5c0-2.2-0.8-3.7-2.5-4.6c-1.7-0.9-4.2-1.3-7.8-1.3
			C29.5,30.6,28.6,30.7,27.6,30.8z"/>
		<path class="st2" d="M82.9,68.7l-12-18.5c-1.2,0-2.9-0.1-5-0.2v18.7h-8.3V23.9c0.4,0,2.2-0.1,5.2-0.2c3-0.2,5.4-0.2,7.2-0.2
			c11.4,0,17.1,4.4,17.1,13.2c0,2.6-0.8,5.1-2.4,7.2c-1.6,2.2-3.5,3.7-5.9,4.6L92,68.7H82.9z M65.9,30.8v12.4
			c1.5,0.1,2.6,0.2,3.4,0.2c3.3,0,5.8-0.5,7.3-1.4c1.5-0.9,2.3-2.8,2.3-5.5c0-2.2-0.8-3.7-2.5-4.6c-1.7-0.9-4.2-1.3-7.8-1.3
			C67.7,30.6,66.8,30.7,65.9,30.8z"/>
		<path class="st2" d="M93.7,66.2l2.9-7.1c3.1,2.2,6.2,3.3,9.3,3.3c4.7,0,7-1.6,7-4.9c0-1.5-0.6-3-1.7-4.4c-1.1-1.4-3.4-2.9-6.8-4.7
			c-3.4-1.7-5.7-3.1-6.9-4.2c-1.2-1.1-2.1-2.4-2.8-4c-0.6-1.5-1-3.2-1-5.1c0-3.5,1.3-6.3,3.8-8.6c2.5-2.3,5.8-3.4,9.8-3.4
			c5.2,0,9,1,11.4,2.9l-2.4,6.8c-2.8-2-5.7-3-8.8-3c-1.8,0-3.3,0.5-4.3,1.5c-1,1-1.5,2.2-1.5,3.8c0,2.6,2.8,5.2,8.5,8
			c3,1.5,5.2,2.8,6.5,4.1c1.3,1.2,2.3,2.7,3,4.3c0.7,1.6,1,3.5,1,5.5c0,3.6-1.4,6.6-4.3,9c-2.9,2.3-6.7,3.5-11.5,3.5
			C100.9,69.4,97.1,68.3,93.7,66.2z"/>
		<path class="st2" d="M124.8,66.2l2.9-7.1c3.1,2.2,6.2,3.3,9.3,3.3c4.7,0,7-1.6,7-4.9c0-1.5-0.6-3-1.7-4.4
			c-1.1-1.4-3.4-2.9-6.8-4.7c-3.4-1.7-5.7-3.1-6.9-4.2c-1.2-1.1-2.1-2.4-2.8-4c-0.6-1.5-1-3.2-1-5.1c0-3.5,1.3-6.3,3.8-8.6
			c2.5-2.3,5.8-3.4,9.8-3.4c5.2,0,9,1,11.4,2.9l-2.4,6.8c-2.8-2-5.7-3-8.8-3c-1.8,0-3.3,0.5-4.3,1.5c-1,1-1.5,2.2-1.5,3.8
			c0,2.6,2.8,5.2,8.5,8c3,1.5,5.2,2.8,6.5,4.1c1.3,1.2,2.3,2.7,3,4.3c0.7,1.6,1,3.5,1,5.5c0,3.6-1.4,6.6-4.3,9
			c-2.9,2.3-6.7,3.5-11.5,3.5C131.9,69.4,128.1,68.3,124.8,66.2z"/>
	</g>
</g>
</svg>
