<?xml version="1.0" encoding="utf-8"?>
<!-- Generator: Adobe Illustrator 28.2.0, SVG Export Plug-In . SVG Version: 6.00 Build 0)  -->
<svg version="1.1" id="Capa_2_00000155867278275745801890000000647496343941925260_"
	 xmlns="http://www.w3.org/2000/svg" xmlns:xlink="http://www.w3.org/1999/xlink" x="0px" y="0px" viewBox="0 0 45.4 45.4"
	 style="enable-background:new 0 0 45.4 45.4;" xml:space="preserve">
<style type="text/css">
	.st0{fill-rule:evenodd;clip-rule:evenodd;fill:#75549D;}
	.st1{fill-rule:evenodd;clip-rule:evenodd;fill:#FFFFFF;}
	.st2{fill:#FFFFFF;}
</style>
<g>
	<path class="st0" d="M37.1,0.7H8.3c-4.2,0-7.5,3.4-7.5,7.5v28.9c0,4.2,3.4,7.5,7.5,7.5h28.9c4.2,0,7.5-3.4,7.5-7.5V8.3
		C44.7,4.1,41.3,0.7,37.1,0.7z"/>
	<g>
		<path class="st1" d="M35.6,33.8V21.2c0-1.9-0.4-3.2-1.1-4.1c-0.7-0.9-1.9-1.3-3.5-1.3c-0.7,0-1.5,0.2-2.4,0.6
			c-0.8,0.4-1.5,0.9-2,1.6v15.7h-5.1V12.1h3.6l0.9,2c1.4-1.6,3.4-2.4,6.1-2.4c2.6,0,4.6,0.8,6.1,2.3c1.5,1.5,2.2,3.7,2.2,6.5v13.3
			H35.6z"/>
		<path class="st2" d="M17,33.7l-5.8-9c-0.6,0-1.4,0-2.5-0.1v9.1h-4V11.9c0.2,0,1.1,0,2.5-0.1c1.5-0.1,2.6-0.1,3.5-0.1
			c5.5,0,8.3,2.1,8.3,6.4c0,1.3-0.4,2.5-1.1,3.5c-0.8,1.1-1.7,1.8-2.9,2.2l6.4,9.8H17z M8.7,15.3v6.1c0.7,0.1,1.3,0.1,1.6,0.1
			c1.6,0,2.8-0.2,3.5-0.7c0.7-0.5,1.1-1.3,1.1-2.7c0-1.1-0.4-1.8-1.2-2.2c-0.8-0.4-2.1-0.6-3.8-0.6C9.6,15.2,9.2,15.2,8.7,15.3z"/>
	</g>
</g>
</svg>
