<?xml version="1.0" encoding="UTF-8"?>
<svg version="1.1" xmlns="http://www.w3.org/2000/svg" width="600" height="300">
<path d="M0 0 C0.86478287 -0.00465992 1.72956574 -0.00931984 2.62055415 -0.01412097 C5.50838813 -0.02603915 8.39574887 -0.01668777 11.2835865 -0.00736332 C13.37891587 -0.01153762 15.47424298 -0.01701566 17.56956589 -0.02368313 C23.32003958 -0.03814376 29.07037001 -0.03389101 34.82085156 -0.02651632 C41.02547443 -0.02178851 47.23006613 -0.03429109 53.43467903 -0.04453373 C64.88491333 -0.06074061 76.33508417 -0.0631655 87.78532454 -0.05822874 C98.36478974 -0.05366973 108.94423797 -0.05427303 119.52370262 -0.06006908 C120.94338762 -0.06082595 122.36307262 -0.06158193 123.78275762 -0.06233703 C125.92215692 -0.06348224 128.06155622 -0.06463212 130.20095552 -0.06579627 C150.08858693 -0.07649975 169.97621269 -0.0812281 189.86384583 -0.07332611 C190.98812802 -0.07288035 190.98812802 -0.07288035 192.13512299 -0.07242559 C198.22157285 -0.06997671 204.30802264 -0.06736509 210.39447243 -0.06474145 C234.13407744 -0.05463959 257.87361172 -0.06299389 281.61320686 -0.086236 C308.29281105 -0.11231433 334.97237265 -0.12515499 361.65199006 -0.11804825 C364.49732978 -0.1173322 367.34266952 -0.11665781 370.18800926 -0.1160078 C370.88858955 -0.115838 371.58916984 -0.11566819 372.31097983 -0.11549323 C382.88140258 -0.11319131 393.45178576 -0.12116215 404.02219963 -0.13429928 C416.04518006 -0.14921516 428.06804267 -0.14967333 440.09102927 -0.13222837 C446.22502369 -0.12370558 452.35884118 -0.12160028 458.49282646 -0.13687992 C464.10980934 -0.15069849 469.72646324 -0.14599993 475.34342696 -0.12664068 C477.37362189 -0.12287172 479.40384299 -0.12582839 481.43401466 -0.13625234 C500.91683577 -0.22916083 500.91683577 -0.22916083 509.98967171 4.38031673 C511.02221077 4.89851986 512.05474983 5.41672298 513.11857796 5.95062923 C526.86335086 14.73139908 536.79938797 26.42846345 540.98967171 42.38031673 C541.37348892 45.37929319 541.40466132 48.32680977 541.38408089 51.34754086 C541.39017199 52.20360432 541.39626309 53.05966778 541.40253878 53.94167256 C541.41907335 56.78561665 541.41440666 59.62910829 541.40959358 62.47309017 C541.41693954 64.52226885 541.4255273 66.5714434 541.43525887 68.62061214 C541.45743019 74.17039866 541.46040766 79.7200365 541.45851135 85.26986122 C541.45839143 89.91169394 541.46696472 94.55349542 541.47528887 99.19531941 C541.49450791 110.15251431 541.49741251 121.10963304 541.49064827 132.06684017 C541.48401138 143.34868796 541.50686136 154.63020849 541.543962 165.91198993 C541.57471181 175.61677195 541.58601321 185.321449 541.58212519 195.02627873 C541.58006284 200.81420934 541.58545732 206.60188532 541.61001778 212.38976955 C541.63236901 217.83677339 541.63033735 223.28324737 541.61009026 228.73025417 C541.60669482 230.72115145 541.61170553 232.71208499 541.62607384 234.70293331 C541.72992443 250.16827994 539.60076738 261.72054018 529.98967171 274.38031673 C529.24717171 275.39094173 528.50467171 276.40156673 527.73967171 277.44281673 C519.60558619 286.70592359 508.25890526 293.47022502 495.98967171 295.38031673 C493.1978495 295.48213712 490.4303842 295.53503466 487.63855171 295.53853512 C486.79976123 295.5434731 485.96097074 295.54841107 485.09676236 295.55349869 C482.28543267 295.56885533 479.47412583 295.57723099 476.66276741 295.585639 C474.6446583 295.59522256 472.62655117 295.60523292 470.60844612 295.61563778 C465.11177151 295.64273002 459.61508838 295.66373919 454.11838365 295.68363976 C448.31880656 295.70561447 442.51925477 295.73297813 436.71969795 295.75969601 C426.93168984 295.80402865 417.14367221 295.84475639 407.3556385 295.88300228 C393.73706541 295.93622607 380.11852827 295.9961724 366.49998915 296.05739796 C356.91582756 296.10019874 347.33165818 296.14121525 337.74748778 296.18198943 C335.46686077 296.19170925 333.18623399 296.20148463 330.90560746 296.21131921 C265.90869913 296.49127546 200.91297994 296.3572272 135.91603279 296.14460182 C133.1624217 296.13564058 130.40881045 296.12673051 127.65519905 296.11786556 C126.62941093 296.11456004 126.62941093 296.11456004 125.58289981 296.11118773 C114.38958917 296.07543727 103.19627901 296.05075547 92.00293171 296.02996971 C80.40054791 296.00819492 68.7982396 295.97495484 57.19591618 295.93161517 C50.72411049 295.90777978 44.25238327 295.88898455 37.78053474 295.88270283 C31.73227073 295.87665996 25.68421233 295.85668925 19.63602448 295.82604122 C17.42454327 295.81726691 15.21303522 295.81353715 13.00153732 295.81530857 C9.97716356 295.81696647 6.95341288 295.80022112 3.92912483 295.77904415 C3.06242259 295.78389173 2.19572035 295.7887393 1.3027544 295.79373378 C-12.21668504 295.6381276 -25.33700086 289.72781708 -35.05720329 280.42719173 C-45.47885277 269.50530308 -51.16104793 256.93325638 -51.15749931 241.83632565 C-51.161176 240.98958143 -51.16485269 240.14283721 -51.16864079 239.27043408 C-51.17963161 236.44027481 -51.18351361 233.61015231 -51.18733025 230.77997494 C-51.19359832 228.74770143 -51.20024542 226.71542905 -51.20724297 224.68315792 C-51.22824293 218.01581267 -51.2386408 211.34846728 -51.24860954 204.68109798 C-51.25265846 202.38257174 -51.25677543 200.08404561 -51.26095963 197.7855196 C-51.28000149 186.98666458 -51.29423526 176.18781636 -51.30257159 165.38894778 C-51.31234391 152.93677612 -51.33866766 140.48478222 -51.37907249 128.03267318 C-51.40925775 118.39848822 -51.42404272 108.76435416 -51.42735261 99.13012284 C-51.42970008 93.38023748 -51.43862163 87.63054225 -51.46381378 81.88070774 C-51.48714192 76.46912642 -51.49130856 71.05785981 -51.4810524 65.64624119 C-51.48055811 63.66578784 -51.48684696 61.68531874 -51.50060844 59.70491314 C-51.62650863 40.5046932 -51.62650863 40.5046932 -47.01032829 31.38031673 C-46.23302361 29.83150814 -46.23302361 29.83150814 -45.44001579 28.25141048 C-35.13035689 12.11342683 -19.76790798 -0.16897472 0 0 Z " fill="#7F53B3" transform="translate(55.01032829284668,3.619683265686035)"/>
<path d="M0 0 C4.57922436 2.30381925 8.99537216 4.88839171 13.41796875 7.4765625 C15.25761898 8.53939753 17.09747126 9.6018829 18.9375 10.6640625 C22.9821683 13.00833166 27.01711565 15.36848294 31.046875 17.73828125 C37.44263628 21.49777214 43.86433432 25.21113039 50.29296875 28.9140625 C51.37247803 29.53619629 52.4519873 30.15833008 53.56420898 30.79931641 C55.75461625 32.06154083 57.94512747 33.32358487 60.13574219 34.58544922 C65.56456817 37.71336398 70.99116156 40.84514698 76.41796875 43.9765625 C78.58462458 45.22658129 80.75129125 46.47658128 82.91796875 47.7265625 C102.41796875 58.9765625 102.41796875 58.9765625 121.91796875 70.2265625 C122.99062988 70.84539307 124.06329102 71.46422363 125.16845703 72.10180664 C127.33353946 73.35091768 129.49857857 74.60010379 131.66357422 75.84936523 C138.19909095 79.62038493 144.73618891 83.38864305 151.2746582 87.15454102 C154.50799903 89.01889881 157.73844297 90.88820436 160.96875 92.7578125 C165.36946565 95.30280468 169.78512737 97.81923731 174.2109375 100.3203125 C176.38416658 101.55980467 178.55734555 102.7993847 180.73046875 104.0390625 C181.73287598 104.59859619 182.7352832 105.15812988 183.76806641 105.73461914 C189.70012748 109.1373281 194.28259791 112.20582081 197.41796875 118.4765625 C197.51454747 120.2661094 197.54777343 122.05941784 197.54296875 123.8515625 C197.54554688 124.80804688 197.548125 125.76453125 197.55078125 126.75 C197.43348753 129.15797104 197.10472826 131.17646318 196.41796875 133.4765625 C195.75796875 133.4765625 195.09796875 133.4765625 194.41796875 133.4765625 C194.15628906 134.08943115 193.89460937 134.7022998 193.625 135.33374023 C192.30101189 137.68419404 191.40579271 138.42222336 189.10546875 139.76171875 C188.38875 140.18469238 187.67203125 140.60766602 186.93359375 141.04345703 C186.1034375 141.51638184 185.27328125 141.98930664 184.41796875 142.4765625 C183.4640625 143.02812012 182.51015625 143.57967773 181.52734375 144.14794922 C178.76412434 145.73756605 175.99530778 147.31679792 173.22265625 148.88989258 C170.09784399 150.66324045 166.97644528 152.44256846 163.85546875 154.22265625 C163.22398926 154.5828183 162.59250977 154.94298035 161.94189453 155.3140564 C156.07791109 158.66288982 150.24455063 162.06310405 144.41796875 165.4765625 C135.7831103 170.53306972 127.11190356 175.52263486 118.41796875 180.4765625 C108.69672369 186.01642183 99.00902007 191.61031182 89.35107422 197.26000977 C82.09585149 201.50273523 74.82443556 205.71654304 67.54296875 209.9140625 C65.93216431 210.8426709 65.93216431 210.8426709 64.28881836 211.79003906 C59.86446379 214.33979046 55.43944288 216.88838331 51.01416016 219.43652344 C37.16892551 227.40963929 23.34281984 235.41057644 9.59765625 243.55517578 C7.9141734 244.5521944 6.22862784 245.54572768 4.54296875 246.5390625 C3.61742187 247.08691406 2.691875 247.63476562 1.73828125 248.19921875 C-3.26110049 250.95140365 -8.0028277 251.06250625 -13.58203125 250.4765625 C-18.94247411 248.86122751 -21.73537496 245.42201066 -24.53992856 240.7510587 C-26.3153546 236.87600896 -26.26224852 233.22373083 -26.19676208 229.01976013 C-26.20244534 228.09906441 -26.2081286 227.17836869 -26.21398407 226.2297731 C-26.22684802 223.16109678 -26.2041312 220.09374974 -26.18139648 217.02514648 C-26.18326129 214.81860071 -26.18729953 212.61205586 -26.19334412 210.40551758 C-26.20331117 204.42412597 -26.18216059 198.44320893 -26.15486407 192.46188617 C-26.13101537 186.19913326 -26.13397887 179.93638947 -26.13356018 173.67359924 C-26.12893361 163.15805827 -26.105447 152.64266937 -26.0690918 142.12719727 C-26.03174076 131.31662835 -26.01049541 120.50619071 -26.00756836 109.69555664 C-26.00738555 109.02954225 -26.00720274 108.36352785 -26.00701439 107.6773312 C-26.00683542 107.01244755 -26.00665645 106.34756391 -26.00647205 105.66253227 C-26.00293865 92.71718579 -25.98399555 79.77189574 -25.95935178 66.82657361 C-25.95312579 63.09812665 -25.94948782 59.36968414 -25.94631767 55.64123344 C-25.94041266 49.78153199 -25.92408699 43.92194683 -25.89971352 38.06229401 C-25.89227952 35.91247265 -25.88820197 33.76263666 -25.88773346 31.61280251 C-25.88647356 28.67720924 -25.87291084 25.74192136 -25.85618591 22.80638123 C-25.85980854 21.53195645 -25.85980854 21.53195645 -25.86350435 20.23178571 C-25.79883686 12.97601654 -24.94369335 6.8382246 -19.58203125 1.4765625 C-13.15674272 -2.95994625 -7.03875818 -2.99358309 0 0 Z " fill="#000000" transform="translate(360.58203125,27.5234375)"/>
<path d="M0 0 C3.29571519 1.47212008 5.54288886 3.38264249 8 6 C8.51304687 6.53753906 9.02609375 7.07507812 9.5546875 7.62890625 C13.65165807 12.24667816 14.47059327 16.15653823 14.41015625 22.1484375 C13.78853198 26.47020621 11.80695937 29.77432769 9.7265625 33.5703125 C6.72206257 39.53852729 4.75109716 45.88919382 2.62548828 52.21191406 C2.10652761 53.69546908 1.51871874 55.15472877 0.9140625 56.60546875 C-0.18887701 59.49479319 -0.773977 62.34160157 -1.375 65.375 C-2.65954977 71.62169383 -4.25420582 77.72128588 -6.03515625 83.84375 C-7.26430379 88.60801788 -7.80765599 93.47775596 -8.47094727 98.34619141 C-9.11552652 102.79786334 -9.95164175 107.19742089 -10.80175781 111.61352539 C-13.70931133 126.81565332 -15.40573525 141.94169565 -16.69042969 157.34985352 C-16.86426952 159.39960061 -17.04537033 161.44886734 -17.25224304 163.49554443 C-17.89135165 169.95359665 -18.14645547 176.33311017 -18.17578125 182.8203125 C-18.1989591 184.83985441 -18.22307557 186.85938572 -18.24804688 188.87890625 C-18.28319736 192.01000345 -18.312567 195.14070155 -18.32592773 198.27197266 C-18.34147004 201.33021925 -18.38168146 204.38736125 -18.42578125 207.4453125 C-18.42387283 208.37054718 -18.42196442 209.29578186 -18.41999817 210.24905396 C-18.56329901 217.93741771 -20.7542622 223.6313933 -25 230 C-30.7177671 233.08759424 -35.82901021 234.11523791 -42.19140625 232.4140625 C-64.53774568 223.94188512 -80.80746606 189.72086607 -90.23852539 169.14160156 C-106 133.82189838 -106 133.82189838 -106 123 C-106.66 123 -107.32 123 -108 123 C-108.10570312 123.72445312 -108.21140625 124.44890625 -108.3203125 125.1953125 C-109.0596083 128.24596987 -110.18434076 130.24228187 -111.875 132.875 C-113.67086545 135.76121233 -115.34474978 138.53666195 -116.625 141.6875 C-117.64669619 144.14885901 -118.6608116 146.22942116 -120 148.5 C-121.37064621 150.82594508 -122.42471973 152.99101269 -123.5 155.5 C-124.82950864 158.60218682 -126.32559797 161.3555602 -128.03125 164.25 C-129.17604753 166.24882994 -129.17604753 166.24882994 -130.5 169.5 C-131.81359831 172.56506271 -133.34074383 175.32298391 -135.03515625 178.1875 C-136.03687576 180.06927268 -136.74147598 181.92414238 -137.4375 183.9375 C-138.75449045 187.67138502 -140.60466088 190.77013681 -142.81640625 194.04296875 C-144.07640447 195.99515985 -144.07640447 195.99515985 -144.87890625 198.30078125 C-146.32770442 201.78900264 -148.31608583 204.85107245 -150.375 208 C-150.76171875 208.60328125 -151.1484375 209.2065625 -151.546875 209.828125 C-155.18468769 215.44354056 -159.20484448 220.31901485 -164 225 C-164.71349609 225.78117187 -164.71349609 225.78117187 -165.44140625 226.578125 C-168.6799437 230.06187808 -171.16305318 232.1115812 -176 233 C-181.12941531 232.64624722 -185.19050248 232.04992027 -188.67578125 228.1015625 C-203.01953073 206.39765517 -207.78320042 176.89223566 -212.9765625 151.84375 C-213.77204029 148.0089883 -214.68126262 144.22334359 -215.6875 140.4375 C-216.71752949 136.47420984 -217.37368316 132.57195401 -217.8984375 128.51171875 C-218.89056366 121.37186207 -220.34958363 114.40244851 -221.9375 107.375 C-223.93002718 98.33554039 -225.68923278 89.34299999 -226.95458984 80.17431641 C-227.79291657 74.15495716 -228.88397316 68.21151615 -230.0625 62.25 C-236.90390212 27.21918934 -236.90390212 27.21918934 -231.34375 17.6875 C-228.30356662 13.86959529 -224.58827714 11.52942571 -220 10 C-212.45087463 9.37004563 -205.17876276 9.06916469 -199 14 C-195.36923818 17.72866325 -194.91898906 22.08199689 -194.02734375 27.015625 C-193.85876358 27.90425232 -193.69018341 28.79287964 -193.51649475 29.70843506 C-193.16108254 31.59373045 -192.81090361 33.48001885 -192.46557617 35.3671875 C-191.946607 38.20028412 -191.41136992 41.02989959 -190.87304688 43.859375 C-189.32696031 52.08248446 -187.87745303 60.28463963 -186.91015625 68.59765625 C-186.13818116 75.23132972 -184.95199597 81.6726521 -183.5 88.1875 C-180.84040233 100.481452 -180.84040233 100.481452 -180 106.6875 C-179.06784608 113.36494875 -177.42521918 119.85295258 -175.82080078 126.39404297 C-174.51099784 131.75498365 -173.33718827 137.08281854 -172.5546875 142.55078125 C-171.73244753 146.18137607 -170.35181543 149.5327761 -169 153 C-168.5153125 152.01902344 -168.030625 151.03804687 -167.53125 150.02734375 C-161.88969816 138.6518721 -155.99552225 127.43782429 -149.875 116.3125 C-147.8980343 112.70308005 -146.01390824 109.06284349 -144.1875 105.375 C-139.3264135 95.5635157 -134.16353108 85.89973015 -128.875 76.3125 C-126.61249894 72.20114073 -124.50991773 68.02183787 -122.4375 63.8125 C-119.88310709 58.66995567 -117.24062137 53.73984122 -114 49 C-113.13375 47.63875 -113.13375 47.63875 -112.25 46.25 C-108.46202776 42.46202776 -103.99829165 40.16036244 -98.58984375 39.87109375 C-92.25421591 40.38936715 -88.21414182 42.3243115 -84.08203125 47.19140625 C-79.76011675 53.05530703 -78.77441585 59.86853711 -77.375 66.875 C-77.07906146 68.27387825 -76.7810317 69.67231566 -76.48095703 71.0703125 C-75.63276504 75.04266386 -74.81497336 79.02070351 -74 83 C-73.30393179 86.33606107 -72.59833061 89.66974373 -71.875 93 C-71.72401855 93.69552979 -71.57303711 94.39105957 -71.41748047 95.10766602 C-70.08109849 101.04706208 -68.22987875 106.72137498 -66.2265625 112.4609375 C-65.02358672 115.93194405 -63.93421324 119.42026518 -62.875 122.9375 C-61.78626632 126.54005779 -60.63200339 130.06228579 -59.25 133.5625 C-58 137 -58 137 -58 141 C-57.34 141 -56.68 141 -56 141 C-56.03262939 140.13689209 -56.03262939 140.13689209 -56.06591797 139.25634766 C-56.21404641 132.127843 -55.29977891 125.39369669 -54.125 118.375 C-53.74932482 116.05500681 -53.3756183 113.73469396 -53.00390625 111.4140625 C-52.82617676 110.30450195 -52.64844727 109.19494141 -52.46533203 108.05175781 C-51.89180345 104.29042139 -51.46588454 100.53319867 -51.0625 96.75 C-49.97753186 87.54243257 -47.74151778 78.60148936 -45.59008789 69.59472656 C-45.00856753 67.03767303 -44.51051446 64.47567953 -44.02734375 61.8984375 C-43.08895585 57.11237683 -41.67361033 52.5972764 -40.0625 48 C-39.51949479 46.41973014 -38.9778142 44.83900447 -38.4375 43.2578125 C-38.18355469 42.51563477 -37.92960938 41.77345703 -37.66796875 41.00878906 C-36.88404808 38.65129664 -36.21267318 36.27251362 -35.5625 33.875 C-31.96710486 21.69295529 -26.74927517 8.46477443 -16 1 C-11.2869932 -1.3565034 -5.09818647 -0.58760656 0 0 Z " fill="#FEFDFE" transform="translate(268,37)"/>
</svg>
